<svg xmlns="http://www.w3.org/2000/svg" xmlns:xlink="http://www.w3.org/1999/xlink" width="164" height="50" viewBox="0 0 164 50">
  <defs>
    <linearGradient id="linear-gradient" x1="0.291" y1="0.239" x2="0.544" y2="0.763" gradientUnits="objectBoundingBox">
      <stop offset="0" stop-color="#673c17"/>
      <stop offset="0.096" stop-color="#6a3e18"/>
      <stop offset="0.162" stop-color="#73451a"/>
      <stop offset="0.219" stop-color="#82501f"/>
      <stop offset="0.271" stop-color="#986025"/>
      <stop offset="0.29" stop-color="#a26828"/>
      <stop offset="0.513" stop-color="#a66b29"/>
      <stop offset="0.572" stop-color="#aa6f2a"/>
      <stop offset="0.612" stop-color="#ac722a"/>
      <stop offset="0.683" stop-color="#b0752b"/>
      <stop offset="1" stop-color="#ffcd47"/>
    </linearGradient>
    <linearGradient id="linear-gradient-2" x1="0.989" y1="0.959" x2="0.222" y2="0.208" gradientUnits="objectBoundingBox">
      <stop offset="0.25" stop-color="#673c17"/>
      <stop offset="0.313" stop-color="#6a3e18"/>
      <stop offset="0.357" stop-color="#73451a"/>
      <stop offset="0.395" stop-color="#82501f"/>
      <stop offset="0.429" stop-color="#986025"/>
      <stop offset="0.442" stop-color="#a26828"/>
      <stop offset="0.487" stop-color="#ae752c"/>
      <stop offset="0.64" stop-color="#d19b38"/>
      <stop offset="0.782" stop-color="#eab640"/>
      <stop offset="0.906" stop-color="#fac745"/>
      <stop offset="1" stop-color="#ffcd47"/>
    </linearGradient>
    <linearGradient id="linear-gradient-3" x1="1.033" y1="1.038" x2="0.102" y2="0.088" gradientUnits="objectBoundingBox">
      <stop offset="0.09" stop-color="#414681"/>
      <stop offset="0.105" stop-color="#675a6f"/>
      <stop offset="0.124" stop-color="#91705b"/>
      <stop offset="0.142" stop-color="#b0814d"/>
      <stop offset="0.157" stop-color="#c28a44"/>
      <stop offset="0.168" stop-color="#c98e41"/>
      <stop offset="0.263" stop-color="#dd9f38"/>
      <stop offset="0.371" stop-color="#db8129"/>
      <stop offset="0.454" stop-color="#f6ec41"/>
      <stop offset="0.593" stop-color="#d36d28"/>
      <stop offset="0.785" stop-color="#edb22e"/>
      <stop offset="0.861" stop-color="#d69028"/>
      <stop offset="0.947" stop-color="#161c48"/>
    </linearGradient>
    <linearGradient id="linear-gradient-4" x1="-0.087" y1="-0.215" x2="0.906" y2="0.951" gradientUnits="objectBoundingBox">
      <stop offset="0.168" stop-color="#1a1c4a"/>
      <stop offset="0.269" stop-color="#c98e41"/>
      <stop offset="0.412" stop-color="#dd9f38"/>
      <stop offset="0.47" stop-color="#dc8529"/>
      <stop offset="0.553" stop-color="#fbe047"/>
      <stop offset="0.656" stop-color="#d36d28"/>
      <stop offset="0.749" stop-color="#edb22e"/>
      <stop offset="0.815" stop-color="#d69028"/>
      <stop offset="0.829" stop-color="#c9882a"/>
      <stop offset="0.854" stop-color="#a67330"/>
      <stop offset="0.888" stop-color="#6d5139"/>
      <stop offset="0.929" stop-color="#202246"/>
      <stop offset="0.934" stop-color="#161c48"/>
    </linearGradient>
    <linearGradient id="linear-gradient-5" x1="1.069" y1="1.021" x2="-0.132" y2="-0.011" gradientUnits="objectBoundingBox">
      <stop offset="0.014" stop-color="#1a1c4a"/>
      <stop offset="0.087" stop-color="#43364f"/>
      <stop offset="0.158" stop-color="#c98e41"/>
      <stop offset="0.28" stop-color="#dd9f38"/>
      <stop offset="0.412" stop-color="#fcc946"/>
      <stop offset="0.593" stop-color="#d36d28"/>
      <stop offset="0.745" stop-color="#edb22e"/>
      <stop offset="0.813" stop-color="#d69028"/>
      <stop offset="0.825" stop-color="#d28d29"/>
      <stop offset="0.838" stop-color="#c5862b"/>
      <stop offset="0.851" stop-color="#b0792e"/>
      <stop offset="0.864" stop-color="#936833"/>
      <stop offset="0.877" stop-color="#6d5139"/>
      <stop offset="0.891" stop-color="#403541"/>
      <stop offset="0.901" stop-color="#161c48"/>
    </linearGradient>
    <linearGradient id="linear-gradient-6" x1="1.225" y1="1.159" x2="-0.319" y2="-0.322" gradientUnits="objectBoundingBox">
      <stop offset="0.045" stop-color="#fff"/>
      <stop offset="0.18" stop-color="#3853a3"/>
      <stop offset="0.233" stop-color="#636e8f"/>
      <stop offset="0.428" stop-color="#ffce47"/>
      <stop offset="0.966" stop-color="#fdd059"/>
    </linearGradient>
    <linearGradient id="linear-gradient-7" x1="0.982" y1="1.127" x2="-0.621" y2="-0.175" gradientUnits="objectBoundingBox">
      <stop offset="0.139" stop-color="#c99c4c"/>
      <stop offset="0.71" stop-color="#ffcc49"/>
      <stop offset="1" stop-color="#fdd059"/>
    </linearGradient>
    <linearGradient id="linear-gradient-8" x1="0.416" y1="0.047" x2="0.824" y2="0.979" gradientUnits="objectBoundingBox">
      <stop offset="0.139" stop-color="#c99c4c"/>
      <stop offset="0.719" stop-color="#ffcc49"/>
      <stop offset="0.965" stop-color="#fdd057"/>
    </linearGradient>
    <linearGradient id="linear-gradient-9" x1="0.185" y1="0.039" x2="0.709" y2="1.029" xlink:href="#linear-gradient-7"/>
    <linearGradient id="linear-gradient-10" x1="0.789" y1="0.338" x2="0.147" y2="1.232" gradientUnits="objectBoundingBox">
      <stop offset="0" stop-color="#db8e29"/>
      <stop offset="1" stop-color="#fdcf50"/>
    </linearGradient>
    <linearGradient id="linear-gradient-11" x1="-17.698" y1="-45.522" x2="-18.344" y2="-44.697" gradientUnits="objectBoundingBox">
      <stop offset="0" stop-color="#db8e29"/>
      <stop offset="1" stop-color="#ffcd4b"/>
    </linearGradient>
    <linearGradient id="linear-gradient-12" x1="0.987" y1="-0.096" x2="0.25" y2="0.811" gradientUnits="objectBoundingBox">
      <stop offset="0" stop-color="#fdd259"/>
      <stop offset="1" stop-color="#db8e29"/>
    </linearGradient>
    <linearGradient id="linear-gradient-13" x1="-25.334" y1="-49.843" x2="-26.073" y2="-49.019" gradientUnits="objectBoundingBox">
      <stop offset="0.205" stop-color="#fdd04f"/>
      <stop offset="1" stop-color="#db8e29"/>
    </linearGradient>
  </defs>
  <g id="Group_3237" data-name="Group 3237" transform="translate(-16 -15)">
    <g id="Group_199" data-name="Group 199" transform="translate(80 30)">
      <g id="Group_198" data-name="Group 198">
        <path id="Path_389" data-name="Path 389" d="M1863.075,5014.884a4.24,4.24,0,0,1-1.485-3.508v-1.128q1.886-.166,3.772-.321,0,.661,0,1.323c-.009,1.266.9,1.81,2.066,1.672a2.7,2.7,0,0,0,1.543-.591,1.98,1.98,0,0,0,.528-1.488,3.148,3.148,0,0,0-.724-2.036,10.851,10.851,0,0,0-2.684-2.015,11.6,11.6,0,0,1-3.447-2.817,5.131,5.131,0,0,1-.98-3.039,4.6,4.6,0,0,1,1.527-3.635,8.386,8.386,0,0,1,8.778-.062,4.282,4.282,0,0,1,1.467,3.434c0,.306,0,.459,0,.765q-1.89.052-3.779.109,0-.485,0-.969a1.809,1.809,0,0,0-.507-1.4,2.283,2.283,0,0,0-1.49-.423,1.814,1.814,0,0,0-2,1.875,2.979,2.979,0,0,0,.743,1.926,11.023,11.023,0,0,0,2.7,2.061,11.937,11.937,0,0,1,3.446,2.732,4.951,4.951,0,0,1,.94,2.979,4.726,4.726,0,0,1-1.549,3.623,8.021,8.021,0,0,1-4.482,1.7A6.2,6.2,0,0,1,1863.075,5014.884Z" transform="translate(-1861.59 -4996.03)" fill="#d49229"/>
        <path id="Path_390" data-name="Path 390" d="M2350.919,5021.878a3.865,3.865,0,0,1-1.519-3.279q.013-6.968.026-13.936l4,0q-.014,6.943-.028,13.887a1.531,1.531,0,0,0,.524,1.3,2.394,2.394,0,0,0,1.508.309,2.713,2.713,0,0,0,1.509-.5,1.7,1.7,0,0,0,.53-1.342q.014-6.828.028-13.657l3.854,0q-.013,6.634-.027,13.269a4.169,4.169,0,0,1-1.534,3.332,7.989,7.989,0,0,1-4.439,1.446A6.877,6.877,0,0,1,2350.919,5021.878Z" transform="translate(-2335.358 -5004.402)" fill="#d49229"/>
        <path id="Path_391" data-name="Path 391" d="M2861.844,5004.454l5.89,0a7.833,7.833,0,0,1,4.47,1.056,3.655,3.655,0,0,1,1.488,3.092v1.655a3.725,3.725,0,0,1-1.5,3.115,8.052,8.052,0,0,1-4.477,1.145l-1.892.045q-.006,3.47-.012,6.941-2,.086-4,.19Q2861.827,5013.072,2861.844,5004.454Zm5.878,7.634a2.469,2.469,0,0,0,1.473-.387,1.554,1.554,0,0,0,.493-1.239q0-1,0-2a1.519,1.519,0,0,0-.49-1.229,2.417,2.417,0,0,0-1.472-.354l-1.891.012q0,2.618-.009,5.237Z" transform="translate(-2833.019 -5004.208)" fill="#d49229"/>
        <path id="Path_392" data-name="Path 392" d="M3349.973,5004.3h5.926a8.444,8.444,0,0,1,4.508.943,3.348,3.348,0,0,1,1.42,2.9q0,.513,0,1.027a3.242,3.242,0,0,1-2.618,3.284v.047a3.158,3.158,0,0,1,2.057,1.178,4.4,4.4,0,0,1,.6,2.368q0,1.469,0,2.937a8.5,8.5,0,0,0,.074,1.159,2.475,2.475,0,0,0,.365.875q-2.04-.025-4.08-.031a2.585,2.585,0,0,1-.292-.764,7.446,7.446,0,0,1-.073-1.288q0-1.526,0-3.052a1.993,1.993,0,0,0-.564-1.6,3.2,3.2,0,0,0-1.947-.451l-1.383,0q0,3.579,0,7.158-2,.016-4.007.051Q3349.966,5012.676,3349.973,5004.3Zm5.452,7.153a3.465,3.465,0,0,0,1.8-.407,1.579,1.579,0,0,0,.6-1.358V5008.4a1.656,1.656,0,0,0-.491-1.312,2.487,2.487,0,0,0-1.545-.4h-1.818q0,2.386,0,4.771Z" transform="translate(-3307.118 -5004.062)" fill="#d49229"/>
        <path id="Path_393" data-name="Path 393" d="M3859.34,5004.34l10.58,0,0,2.441q-3.291-.023-6.582-.038,0,2.346.006,4.694,2.583.032,5.166.077,0,1.216,0,2.433-2.583-.06-5.167-.1,0,3.671.009,7.342-2-.056-4.006-.094Q3859.347,5012.719,3859.34,5004.34Z" transform="translate(-3801.835 -5004.101)" fill="#d49229"/>
        <path id="Path_394" data-name="Path 394" d="M4221.874,5004.6l5.417,0q2.123,8.945,4.181,17.906-2-.156-4-.293-.367-1.768-.734-3.537v.05q-2.273-.12-4.547-.223-.359,1.673-.721,3.345-1.855-.1-3.712-.181Q4219.839,5013.142,4221.874,5004.6Zm4.387,11.727q-.894-4.345-1.8-8.688h-.073q-.859,4.271-1.729,8.542Q4224.462,5016.249,4226.261,5016.327Z" transform="translate(-4149.938 -5004.354)" fill="#d49229"/>
        <path id="Path_395" data-name="Path 395" d="M4759.71,5004.98l5.708.007q1.3,6.731,2.562,13.468l.073.005q1.279-6.731,2.527-13.466l5.708.01v19.746q-1.884-.234-3.768-.451l-.01-14.614-.072,0q-1.426,7.147-2.891,14.285-1.668-.179-3.338-.345-1.441-7.094-2.928-14.18l-.073,0q.012,6.948.024,13.9-1.743-.159-3.487-.3Z" transform="translate(-4676.288 -5004.723)" fill="#d49229"/>
      </g>
    </g>
    <g id="SUPRFAM" transform="translate(-1917.44 -1438.328)">
      <g id="Group_201" data-name="Group 201" transform="translate(1936.274 1455.026)">
        <path id="Path_396" data-name="Path 396" d="M2133.067,1564.369c.006,0,.046-.059.052-.059-.534.342-1.1.744-1.637,1.086-.55.381-2.064,1.63-3.28,2.742a30.994,30.994,0,0,0-3.109,3.411l-.864,1.26a23.545,23.545,0,0,0-1.954,3.765c-.311.787-.558,1.606-.847,2.429a16.481,16.481,0,0,0-.486,2.087,22.983,22.983,0,0,0,1.727,14.292l.218.476c.646,1.106,1.324,2.146,2.029,3.181.312.458.7.868,1.031,1.3a18.244,18.244,0,0,0,1.576,1.778,10.019,10.019,0,0,0,.746.734c.462.374.855.842,1.341,1.194.546.4,1.073.823,1.644,1.194a16.019,16.019,0,0,0,3.79,1.82,12.63,12.63,0,0,0,2.222.476c.394.054,2.094.054,2.345.04.43-.024,1.644-.226,1.94-.291,0,0,.256-.109.256-.106s-.259.178-.265.178a1.574,1.574,0,0,1-.343.23,7.5,7.5,0,0,1-1.791.678c-.316.092-.694.14-1.039.2-.21.017-1.913.027-2.123.044a15.641,15.641,0,0,1-2.225-.344,16.11,16.11,0,0,1-3.245-1.244,20.02,20.02,0,0,1-5.224-3.982c-.322-.322-.6-.681-.906-1.018a30.18,30.18,0,0,1-3.606-5.084l-.662-1.4a19.9,19.9,0,0,1-.931-2.788c-.186-.626-.287-1.293-.461-1.953l-.168-1.06q-.063-.576-.126-1.152,0-.146-.008-.292c-.043-.185.016-.429-.033-.643-.027-.115,0-.287-.017-.426a4.023,4.023,0,0,1,0-.96v-.417l.092-1.511q.083-.588.168-1.177a18.53,18.53,0,0,1,.377-2.037c.37-1.174.64-2.33,1.1-3.4a27.227,27.227,0,0,1,2.733-4.926c.4-.564.853-1.08,1.275-1.619l.411-.434a10.972,10.972,0,0,1,1.367-1.419c.44-.4.847-.843,1.317-1.21a37.576,37.576,0,0,1,3.53-2.5,13,13,0,0,1,1.426-.81Z" transform="translate(-2118.607 -1564.31)" fill-rule="evenodd" fill="url(#linear-gradient)"/>
        <path id="Path_397" data-name="Path 397" d="M3412.676,1695.8l.612.008.822.058.637.1a15.16,15.16,0,0,1,2.1.518,19.634,19.634,0,0,1,7.958,5.735,30.89,30.89,0,0,1,2.021,2.446l.47.693a14.017,14.017,0,0,1,1.115,1.711,26.434,26.434,0,0,1,1.618,3.222c.331.9.518,1.853.78,2.822l.226,1.236q.092.747.184,1.494,0,.179.008.359c.079.465,0,1,.059,1.469a4.136,4.136,0,0,1-.009,1.052l-.034.852c-.075.527-.109,1.005-.176,1.511a23.575,23.575,0,0,1-1.811,6.361,17.494,17.494,0,0,1-1.031,2.1c-.259.427-.539.85-.8,1.269a25.332,25.332,0,0,1-1.493,2.079c-.126.139-.226.268-.352.407-.162.2-.35.405-.512.6-.279.28-.539.573-.817.853-.238.241-.486.482-.728.72a26.03,26.03,0,0,1-3.4,2.721q-.478.334-.974.659c-.168.11-.578.372-.771.464.006-.008.219-.164.225-.172.142-.1.277-.22.419-.32.314-.228.616-.46.922-.685a19.668,19.668,0,0,0,2.08-1.761,11.052,11.052,0,0,0,.788-.776c.272-.323.616-.595.88-.927.657-.826,1.354-1.618,1.954-2.5a23.2,23.2,0,0,0,3.966-10.435c.079-.5.114-1.013.168-1.544q.013-.4.025-.8a5.407,5.407,0,0,0,0-1.2c0-.083.005-.167.008-.25-.081-.505,0-1.079-.109-1.553q-.038-.384-.076-.768c-.136-.673-.193-1.375-.369-2l-.093-.468-.461-1.628a26.6,26.6,0,0,0-1.341-2.888,21.125,21.125,0,0,0-1.66-2.713,27.169,27.169,0,0,0-4.278-5.084,19,19,0,0,0-5.282-3.406,16.058,16.058,0,0,0-1.568-.551,2.4,2.4,0,0,0-.579-.15l-.788-.175a6.619,6.619,0,0,0-1.434-.142,8.987,8.987,0,0,0-1.09-.008l-.721.042-.7.092-.7.15c0-.006-.029.041-.026.035.179-.083.392-.219.571-.3a13.461,13.461,0,0,1,1.845-.476l1.249-.134Z" transform="translate(-3388.807 -1693.788)" fill-rule="evenodd" fill="url(#linear-gradient-2)"/>
        <path id="Path_398" data-name="Path 398" d="M3617.89,4371.88h0Z" transform="translate(-3594.944 -4328.911)" fill="#fff" fill-rule="evenodd"/>
      </g>
      <path id="Path_399" data-name="Path 399" d="M1954.042,1469.127c.18,0,.573-.036.677.053l-.248.062c-.011,0-1.827.532-2.322.749a29.734,29.734,0,0,0-3.857,2.07,25.739,25.739,0,0,0-9.475,10.318,21.926,21.926,0,0,0-1.327,3.3l-.459,1.636a17.8,17.8,0,0,0-.342,1.82,22.141,22.141,0,0,0,.267,8.807,22.8,22.8,0,0,0,1.177,3.79l.659,1.4a30.065,30.065,0,0,0,3.59,5.084c.251.277.489.562.735.843l.359.351.292.317,1.127,1.035c.631.5,1.254,1,1.937,1.461a15.38,15.38,0,0,0,4.884,2.237c.492.124,1.014.175,1.52.25a7.946,7.946,0,0,0,1.16.067,3.121,3.121,0,0,0,.493-.008c.166-.027.354,0,.509-.033l.868-.083c.561-.138,1.108-.217,1.619-.392a5.268,5.268,0,0,0,3.022-2.563l.175-.709a4.589,4.589,0,0,0,.092-1.9,7.437,7.437,0,0,0-.351-1.286,13.743,13.743,0,0,0-1.21-2.3,32.544,32.544,0,0,0-2.337-3l-.818-.835-.751-.768a6.039,6.039,0,0,0-.876-.876l-.367-.359c-.571-.458-1.1-.955-1.678-1.408l-1.13-.992-.74-.731a19.767,19.767,0,0,1-1.544-1.686c-.313-.4-.664-.772-.96-1.185a21.034,21.034,0,0,1-3.105-5.76,22.047,22.047,0,0,1-.643-2.671,12.511,12.511,0,0,1,.008-4.024c.109-.546.159-1.054.309-1.553a20.977,20.977,0,0,1,.868-2.413,10.4,10.4,0,0,1,1.243-2.135c1.2-1.627,3.013-3.074,2.757-2.714-.66.929-2.609,2.834-2.989,4.047a11.223,11.223,0,0,0,.543,7.146,22.87,22.87,0,0,0,2.83,4.917c.428.568.913,1.086,1.353,1.636.33.413.722.768,1.052,1.177l.476.468a6.475,6.475,0,0,0,.952.927l.409.4c.76.682,1.547,1.451,2.307,2.133-.626.918-1.924,2.214-3.609,1.632a4.671,4.671,0,0,1-1.169-.609,1.3,1.3,0,0,0,.209.6l.142.267a3.187,3.187,0,0,0,1.845,1.127,3.43,3.43,0,0,0,1.177-.109,4.691,4.691,0,0,0,2.421-2.054l.033.033.242.217c.238.19.432.429.667.617.3.238.53.555.824.791a2.08,2.08,0,0,1,.337.34c.257.328.589.6.851.931.488.615,1.033,1.2,1.511,1.828a16.22,16.22,0,0,1,2.713,5.193c.153.5.249,1.042.367,1.6l.058.609a3.614,3.614,0,0,1,.025,1.077c-.056.305-.005.583-.059.868a13.584,13.584,0,0,1-.351,1.553,9.776,9.776,0,0,1-1.711,3.081,6.821,6.821,0,0,1-.843.91c-.3.263-.562.572-.876.818a9,9,0,0,1-2.087,1.277c-.547.225-1.876.642-2.5.814a13.476,13.476,0,0,1-3.841-.21c-.412-.089-1-.248-1.416-.337-.33-.083-2.172-.691-2.691-.9-.632-.258-1.257-.5-1.853-.76a20.789,20.789,0,0,1-3.439-2.12c-.4-.281-.767-.594-1.152-.893l-.626-.568a14.9,14.9,0,0,1-1.311-1.261,27.137,27.137,0,0,1-3.765-4.992,30.975,30.975,0,0,1-1.436-2.9,31.919,31.919,0,0,1-1.135-3.248c-.136-.4-.172-.807-.309-1.219-.176-.53-.218-1.133-.359-1.7q-.033-.318-.067-.635-.042-.5-.083-1v-.242a5.4,5.4,0,0,1-.035-.758c-.011-.212-.022-.423-.033-.635l.009-.453.025-1.077a5.318,5.318,0,0,1,.067-1.127l.033-.468c.1-.58.1-1.163.217-1.72l.276-1.486c.319-1.068.625-2.125,1.01-3.116a28.235,28.235,0,0,1,1.578-3.378,23.483,23.483,0,0,1,7.265-8.164,22.685,22.685,0,0,1,4.108-2.27,37.551,37.551,0,0,1,3.782-1.369l1.617-.4Z" transform="translate(0 -15.548)" fill-rule="evenodd" fill="url(#linear-gradient-3)"/>
      <path id="Path_400" data-name="Path 400" d="M3006.587,1465.067a14.839,14.839,0,0,1,3.647.205c1,.267,2.558.735,3.082.947s1.06.359,1.553.609c.889.452,1.751.91,2.571,1.428.4.252.78.547,1.161.818a24.83,24.83,0,0,1,6.771,7.675c.5.823,2.063,4.178,2.438,5.073.244.585.332,1.179.526,1.8.161.519.256,1.089.392,1.645q.05.371.1.743.05.463.1.927v.192c.084.359.011.817.1,1.185v.434a4.14,4.14,0,0,1,.017.993v.726c-.062.4-.039.875-.075,1.277a21.811,21.811,0,0,1-.25,2.3l-.3,1.62c-.219.812-.41,1.622-.659,2.413a23.209,23.209,0,0,1-1.686,3.957c-.21.392-.4.784-.635,1.152-.572.89-1.178,1.736-1.786,2.579l-1.152,1.328-.484.5a12.424,12.424,0,0,1-1.861,1.711c-.453.351-.9.729-1.369,1.068-.695.505-1.447.92-2.187,1.386-.314.2-.659.319-.985.509a15.713,15.713,0,0,1-2.914,1.252c-.587.193-1.2.41-1.82.584l-1.127.267a2.382,2.382,0,0,1-1.11.025l.567-.25c.5-.2.959-.448,1.436-.66a26.931,26.931,0,0,0,4.591-2.655,25.285,25.285,0,0,0,9.417-11.846,23.611,23.611,0,0,0,1.052-3.74l.226-1.4c.115-.6.081-1.2.167-1.812a6.123,6.123,0,0,0,.033-1.361c0-.125.005-.25.009-.376-.064-.4,0-.887-.067-1.286,0-.12-.006-.239-.009-.359-.119-.666-.119-1.38-.284-2q-.037-.246-.075-.492c-.134-.516-.207-1.076-.384-1.553l-.393-1.361a26.95,26.95,0,0,0-1.21-2.5,21.345,21.345,0,0,0-1.9-3.055,27.392,27.392,0,0,0-3.431-4,14.588,14.588,0,0,0-1.569-1.432c-.6-.448-1.091-.872-1.728-1.294a16.166,16.166,0,0,0-3.69-1.774,13.474,13.474,0,0,0-1.361-.351,2.827,2.827,0,0,0-.593-.1l-.509-.075-.651-.033c-.338.016-.7-.045-1.06,0a4.712,4.712,0,0,0-.7.058l-.526.05c-.475.117-.952.164-1.394.309a5.556,5.556,0,0,0-3.356,2.5,5.12,5.12,0,0,0-.242,3.4,10.25,10.25,0,0,0,1.628,3.164c.212.286.39.59.618.86l.994,1.186.818.893,1.135,1.085a18.426,18.426,0,0,0,1.428,1.377c.971.778,1.922,1.6,2.913,2.354l1.252,1.152.559.584.793.835c.4.49.793.977,1.194,1.469a17.811,17.811,0,0,1,2.028,3.147l.409.81.108.275a10.62,10.62,0,0,1,.593,1.52,10.958,10.958,0,0,1,.351,1.186,16.759,16.759,0,0,1,.324,4.161,15.359,15.359,0,0,1-.766,3.853,22.525,22.525,0,0,1-1.9,3.915,15.8,15.8,0,0,1-3.188,3.164l.44-.427c.267-.295.515-.576.782-.87a9.957,9.957,0,0,0,1.788-3.174c.568-1.829,1.037-1.708.346-5.634-.56-3.182-2.456-5.537-4.167-7.735l-1.419-1.6-.634-.635a4.234,4.234,0,0,0-.635-.626l-.634-.609-1.069-.952c-.084-.074-.313-.213-.325-.317l.559-.743a2.992,2.992,0,0,1,3.147-1.085,2.409,2.409,0,0,1,.8.451l.142.15a2.256,2.256,0,0,0-2.02-1.928,2.763,2.763,0,0,0-1.21.067,4.034,4.034,0,0,0-1.962,1.469,3.23,3.23,0,0,0-.509.7l-.042-.042-.242-.217c-.291-.234-.539-.519-.826-.751l-.927-.868a7.741,7.741,0,0,1-1.052-1.035c-.324-.4-.737-.743-1.06-1.152-.635-.8-1.3-1.579-1.9-2.421a14.934,14.934,0,0,1-2.062-4.216,10.292,10.292,0,0,1-.25-5.268,8.579,8.579,0,0,1,.935-2.3,10.426,10.426,0,0,1,5.243-4.542,12.217,12.217,0,0,1,2.07-.484Z" transform="translate(-1047.415 -11.546)" fill-rule="evenodd" fill="url(#linear-gradient-4)"/>
      <path id="Path_401" data-name="Path 401" d="M3889.46,1489.01h0Z" transform="translate(-1926.084 -35.136)" fill="#c3d22e" fill-rule="evenodd"/>
      <path id="Path_402" data-name="Path 402" d="M3895.46,1490.65h0Z" transform="translate(-1931.992 -36.751)" fill="#c3d22e" fill-rule="evenodd"/>
      <path id="Path_403" data-name="Path 403" d="M3897.64,1491.2h0Z" transform="translate(-1934.139 -37.293)" fill="#c3d22e" fill-rule="evenodd"/>
      <path id="Path_404" data-name="Path 404" d="M3899.28,1491.74h.033v.008Z" transform="translate(-1935.754 -37.825)" fill="#c3d22e" fill-rule="evenodd"/>
      <path id="Path_405" data-name="Path 405" d="M3901.46,1492.29h0Z" transform="translate(-1937.9 -38.366)" fill="#c3d22e" fill-rule="evenodd"/>
      <path id="Path_406" data-name="Path 406" d="M3903.1,1492.83h.033v.008Z" transform="translate(-1939.515 -38.898)" fill="#c3d22e" fill-rule="evenodd"/>
      <path id="Path_407" data-name="Path 407" d="M3118.709,4660.37h0Z" transform="translate(-1167.13 -3157.96)" fill="none" fill-rule="evenodd"/>
      <path id="Path_408" data-name="Path 408" d="M3120.89,4660.92h0Z" transform="translate(-1169.276 -3158.502)" fill="none" fill-rule="evenodd"/>
      <path id="Path_409" data-name="Path 409" d="M3123.07,4661.47h0Z" transform="translate(-1171.423 -3159.043)" fill="none" fill-rule="evenodd"/>
      <path id="Path_410" data-name="Path 410" d="M2783.467,1458.017c.864-.011,1.658-.188,2.38-.124,1.689.15,1.211.179.671.078a10.465,10.465,0,0,0-6.138,1.133,8.3,8.3,0,0,0-1.745,1.114l-.492.449a7.819,7.819,0,0,0-1.286,1.363,9.725,9.725,0,0,0-1.653,2.974c-.125.394-.2.786-.292,1.221a6.566,6.566,0,0,0-.125,1.537q.008.3.017.607c.061.372.059.737.134,1.088a11.117,11.117,0,0,0,.451,1.728,17.557,17.557,0,0,0,1.962,3.839l.609.831.626.74c.362.477.755.91,1.127,1.371l.593.615a7.685,7.685,0,0,0,1.052,1.03l.375.366,1.661,1.5v-.017l.468-.648a4.678,4.678,0,0,1,1.528-1.3,3.311,3.311,0,0,1,.668-.241,2.5,2.5,0,0,1,1.019-.017c.1.021.63-.039.76,0a2.188,2.188,0,0,1,1.691,1.787,4.524,4.524,0,0,0-1.528-.539c-1.177-.141-2.27.973-2.724,1.548-.172.233-.352.506-.524.738.019.022,1.483,1.3,1.891,1.631a7.222,7.222,0,0,1,.944.947l.668.7,1.369,1.612a20.538,20.538,0,0,1,3.531,6.257,19.766,19.766,0,0,1,.484,2.06l.083.764a4.7,4.7,0,0,1,.008,1.13c-.079.487-.052.938-.15,1.379a11.61,11.61,0,0,1-.751,2.243,10.36,10.36,0,0,1-1.294,2.069c-1.457,1.917-3.36,2.822-5.969,3.6-.488.145-1.029.209-1.569.311-.17.017-.339.038-.509.054a3.706,3.706,0,0,1-1.1.116c-.327-.053-.013-.051-.013-.051a2.479,2.479,0,0,1,.287-.1c.449-.11,1.55-.578,1.965-.746a8.753,8.753,0,0,0,1.611-.9c.286-.195.526-.453.793-.665a5.451,5.451,0,0,0,.851-.823c.242-.3.536-.566.768-.881a10.893,10.893,0,0,0,1.419-2.6,9.068,9.068,0,0,0,.342-4.645,13.419,13.419,0,0,0-.727-2.468,16.133,16.133,0,0,0-2.21-3.723,42.11,42.11,0,0,0-3.266-3.572c-.184-.163-.975-1-.98-.993a3.546,3.546,0,0,1-.571.653,4.389,4.389,0,0,1-1.739,1.018,2.878,2.878,0,0,1-1.279.085,2.214,2.214,0,0,1-2.146-2.051c.54.467.315.5.687.648a3.537,3.537,0,0,0,.593.15,3.227,3.227,0,0,0,2.759-1.055c.145-.191.26-.208.4-.4-.409-.365-1.078-.938-1.487-1.3a37.244,37.244,0,0,1-5.269-5.569,25.359,25.359,0,0,1-2.654-5.06c-.2-.626-.378-1.569-.528-2.243-.1-.461-.128-.943-.208-1.435a5.222,5.222,0,0,1,.834-3.169,12.449,12.449,0,0,1,1.624-3.11,18.263,18.263,0,0,1,1.584-1.506l.7-.607a16.381,16.381,0,0,1,3.952-2.035,14.074,14.074,0,0,1,1.858-.293C2782.633,1458.2,2783.186,1458.034,2783.467,1458.017Z" transform="translate(-825.513 -4.455)" fill="#673c17" fill-rule="evenodd"/>
      <path id="Path_411" data-name="Path 411" d="M2794.968,1453.328a8.252,8.252,0,0,1,2.817.222c1.917.538.486.153-.365.026a12.272,12.272,0,0,0-1.826.026c-2.374.052-3.2.8-4.881,1.511a8.326,8.326,0,0,0-1.745,1.091l-.492.44a7.726,7.726,0,0,0-1.286,1.336,9.481,9.481,0,0,0-1.653,2.916c-.125.386-.2.77-.292,1.2a6.325,6.325,0,0,0-.125,1.507q.008.3.017.595c.061.365.059.722.134,1.067a10.7,10.7,0,0,0,.451,1.694,17.089,17.089,0,0,0,1.962,3.762l.609.814.626.725c.362.468.755.893,1.127,1.344l.593.6a7.6,7.6,0,0,0,1.052,1.01l.375.358,1.661,1.474v-.016l.468-.635a4.656,4.656,0,0,1,1.528-1.279,3.342,3.342,0,0,1,.668-.236,2.387,2.387,0,0,1,.986-.049,5.2,5.2,0,0,1,.574-.039,2.016,2.016,0,0,1,1.6,1.6s.053.2.051.2a3.692,3.692,0,0,0-.962-.636,6.464,6.464,0,0,0-.827-.086c-1.167-.2-2.065.837-2.519,1.4l-.472.624c.005.047.008.078.013.125l.985.855c.412.323.752.729,1.16,1.051a7.138,7.138,0,0,1,.943.928l.668.684,1.369,1.58a20.047,20.047,0,0,1,3.531,6.132,19.065,19.065,0,0,1,.484,2.02q.042.375.083.749a4.533,4.533,0,0,1,.009,1.108c-.079.477-.052.919-.15,1.352a13.3,13.3,0,0,1-1.853,4.491,11.339,11.339,0,0,1-6.107,3.805c-.287.083-1.6.275-2.8.492a14.932,14.932,0,0,1-4.046-.238c-.828-.178-1.589-.323-2.341-.548-.348-.109-1.155-.42-1.5-.528a10.9,10.9,0,0,1,1.145.254c.412.087,1.672.4,2.083.489a11.645,11.645,0,0,0,3.847.457c.188-.023.568-.173.727-.211.449-.108,1.683-.776,2.1-.941a7.944,7.944,0,0,0,1.411-1.057c.286-.191.526-.443.793-.651a5.415,5.415,0,0,0,.851-.806c.242-.3.536-.555.768-.863a10.6,10.6,0,0,0,1.419-2.549,8.716,8.716,0,0,0,.342-4.552,12.972,12.972,0,0,0-.727-2.419,17.412,17.412,0,0,0-2.3-3.852c-.452-.578-.957-1.128-1.422-1.7l-.707-.77-.833-.813-1-.928c-.169-.151-.256-.229-.42-.373,0,0-.123-.109-.12-.1.01.02-.046.056-.049.057a2.772,2.772,0,0,1-.5.617,3.635,3.635,0,0,1-1.948,1.291,3.233,3.233,0,0,1-1.035.065,2.256,2.256,0,0,1-1.552-.891c-.047-.087-.209-.248-.256-.335a4.057,4.057,0,0,1-.362-.65,5.019,5.019,0,0,0,.994.606,3.61,3.61,0,0,0,.593.147,3.172,3.172,0,0,0,2.671-1.214l.434-.562-1.227-1.075c-.692-.543-1.128-1.229-1.818-1.772-.192-.193-.522-.482-.714-.675a17.951,17.951,0,0,1-1.438-1.585c-.389-.475-.844-.929-1.223-1.418a20.433,20.433,0,0,1-2.844-5.122c-.232-.583-.418-1.2-.619-1.852a14.006,14.006,0,0,1-.294-3.938,8.9,8.9,0,0,1,.952-2.543c.3-.507.642-1,.978-1.461a20.947,20.947,0,0,1,2.126-1.917,15.347,15.347,0,0,1,8.872-3.013Z" transform="translate(-835.579 0)" fill-rule="evenodd" fill="url(#linear-gradient-5)"/>
      <path id="Path_412" data-name="Path 412" d="M3521.657,2977.12c2.05,1.739,6.144,5.347,8.394,9.219,1.3,2.24,2.33,5.474,2.139,7.643a10.383,10.383,0,0,1-3.56,6.733,7.858,7.858,0,0,0,1.917-2.406,9.277,9.277,0,0,0,1.258-4.327,14.072,14.072,0,0,0-2.027-6.945,35.494,35.494,0,0,0-8.588-9.508" transform="translate(-1563.45 -1500.472)" fill-rule="evenodd" fill="url(#linear-gradient-6)"/>
      <path id="Path_413" data-name="Path 413" d="M3446.282,3155.69a1.954,1.954,0,0,1,.336.25c1.147,1.042,5.462,5.106,7.269,8.91,5.243,11.034-7.91,14.607-7.91,14.607s11.715-4.212,7.646-14.1c-1.609-3.909-7.894-9.421-7.894-9.421" transform="translate(-1489.145 -1676.309)" fill-rule="evenodd" fill="url(#linear-gradient-7)"/>
      <path id="Path_414" data-name="Path 414" d="M2972.708,1487.354s-6.74-5.361-8.3-10.662a9.3,9.3,0,0,1,3.266-10.482,12.739,12.739,0,0,1,9.358-2.5,16.054,16.054,0,0,0-7.975,2.035,9.31,9.31,0,0,0-4.252,9.625c1.487,6.678,8.795,11.634,8.181,11.48" transform="translate(-1014.73 -10.104)" fill-rule="evenodd" fill="url(#linear-gradient-8)"/>
      <path id="Path_415" data-name="Path 415" d="M2786.982,1601.409a38.9,38.9,0,0,1-6.469-6.4,20.6,20.6,0,0,1-3.515-7.056c-2.064-7.568,5.621-11.029,5.621-11.029s-6.146,2.86-5.3,9.613a17.3,17.3,0,0,0,3.5,8.2,36.634,36.634,0,0,0,4.2,4.408,31.86,31.86,0,0,0,2.769,2.182" transform="translate(-830.302 -121.701)" fill-rule="evenodd" fill="url(#linear-gradient-9)"/>
      <path id="Path_416" data-name="Path 416" d="M3545.44,2843.012a4.548,4.548,0,0,1,2.969-1.937,2.413,2.413,0,0,1,2.94,2.006,2.348,2.348,0,0,0-2.863-1.687,4.346,4.346,0,0,0-2.732,1.93Z" transform="translate(-1587.329 -1366.483)" fill-rule="evenodd" fill="url(#linear-gradient-10)"/>
      <path id="Path_417" data-name="Path 417" d="M3149.9,3211.007a4.378,4.378,0,0,1-2.9,2.061,2.7,2.7,0,0,1-2.818-1.864,2.434,2.434,0,0,0,2.762,1.573,4.1,4.1,0,0,0,2.63-2.087Z" transform="translate(-1192.21 -1730.467)" fill-rule="evenodd" fill="url(#linear-gradient-11)"/>
      <path id="Path_418" data-name="Path 418" d="M3146.172,3169.624a4.378,4.378,0,0,1-2.4,1.694,3.032,3.032,0,0,1-2.556-.8s.27.124.578.292a2.672,2.672,0,0,0,1.876.269,3.792,3.792,0,0,0,2.248-1.664Z" transform="translate(-1189.296 -1689.819)" fill-rule="evenodd" fill="url(#linear-gradient-12)"/>
      <path id="Path_419" data-name="Path 419" d="M3616.39,2914.283s.162-.212.258-.327a3.983,3.983,0,0,1,2.044-1.482,2.832,2.832,0,0,1,2.519.895s-.14-.121-.419-.33a2.492,2.492,0,0,0-2-.321,3.867,3.867,0,0,0-2.112,1.768l-.027.042Z" transform="translate(-1657.193 -1436.775)" fill-rule="evenodd" fill="url(#linear-gradient-13)"/>
    </g>
  </g>
</svg>
